<svg xmlns="http://www.w3.org/2000/svg" xmlns:xlink="http://www.w3.org/1999/xlink" width="500" zoomAndPan="magnify" viewBox="0 0 375 374.999991" height="500" preserveAspectRatio="xMidYMid meet" version="1.0"><defs><g/></defs><g fill="#5e8b96" fill-opacity="1"><g transform="translate(143.874656, 168.130799)"><g><path d="M 28.25 -8.921875 C 28.25 -5.890625 27.125 -3.570312 24.875 -1.96875 C 22.632812 -0.363281 19.335938 0.4375 14.984375 0.4375 C 11.015625 0.4375 7.898438 -0.265625 5.640625 -1.671875 C 3.390625 -3.078125 1.941406 -5.207031 1.296875 -8.0625 L 7.5625 -9.09375 C 7.988281 -7.457031 8.816406 -6.269531 10.046875 -5.53125 C 11.273438 -4.789062 12.976562 -4.421875 15.15625 -4.421875 C 19.6875 -4.421875 21.953125 -5.796875 21.953125 -8.546875 C 21.953125 -9.421875 21.691406 -10.144531 21.171875 -10.71875 C 20.648438 -11.289062 19.914062 -11.765625 18.96875 -12.140625 C 18.03125 -12.523438 16.21875 -12.988281 13.53125 -13.53125 C 11.21875 -14.070312 9.609375 -14.507812 8.703125 -14.84375 C 7.796875 -15.175781 6.972656 -15.5625 6.234375 -16 C 5.503906 -16.445312 4.882812 -16.984375 4.375 -17.609375 C 3.863281 -18.242188 3.460938 -18.984375 3.171875 -19.828125 C 2.890625 -20.679688 2.75 -21.660156 2.75 -22.765625 C 2.75 -25.554688 3.796875 -27.695312 5.890625 -29.1875 C 7.992188 -30.675781 11.054688 -31.421875 15.078125 -31.421875 C 18.910156 -31.421875 21.789062 -30.816406 23.71875 -29.609375 C 25.644531 -28.410156 26.882812 -26.429688 27.4375 -23.671875 L 21.15625 -22.8125 C 20.832031 -24.144531 20.175781 -25.144531 19.1875 -25.8125 C 18.195312 -26.488281 16.78125 -26.828125 14.9375 -26.828125 C 11.007812 -26.828125 9.046875 -25.597656 9.046875 -23.140625 C 9.046875 -22.328125 9.253906 -21.664062 9.671875 -21.15625 C 10.097656 -20.644531 10.71875 -20.207031 11.53125 -19.84375 C 12.351562 -19.488281 14.019531 -19.039062 16.53125 -18.5 C 19.5 -17.875 21.625 -17.289062 22.90625 -16.75 C 24.1875 -16.21875 25.203125 -15.597656 25.953125 -14.890625 C 26.703125 -14.179688 27.269531 -13.332031 27.65625 -12.34375 C 28.050781 -11.351562 28.25 -10.210938 28.25 -8.921875 Z M 28.25 -8.921875 "/></g></g></g><g fill="#5e8b96" fill-opacity="1"><g transform="translate(179.146398, 168.130799)"><g><path d="M 24.890625 0 L 22.15625 -7.90625 L 10.34375 -7.90625 L 7.609375 0 L 1.125 0 L 12.421875 -30.953125 L 20.0625 -30.953125 L 31.3125 0 Z M 16.234375 -26.1875 L 16.109375 -25.703125 C 15.960938 -25.179688 15.785156 -24.582031 15.578125 -23.90625 C 15.367188 -23.226562 14.109375 -19.519531 11.796875 -12.78125 L 20.703125 -12.78125 L 17.640625 -21.6875 L 16.703125 -24.671875 Z M 16.234375 -26.1875 "/></g></g></g><g fill="#5e8b96" fill-opacity="1"><g transform="translate(216.900409, 168.130799)"><g><path d="M 3.015625 0 L 3.015625 -30.953125 L 9.5 -30.953125 L 9.5 -5.015625 L 26.109375 -5.015625 L 26.109375 0 Z M 3.015625 0 "/></g></g></g><g fill="#5e8b96" fill-opacity="1"><g transform="translate(249.645958, 168.130799)"><g><path d="M 28.71875 0 L 28.71875 -18.765625 C 28.71875 -19.191406 28.71875 -19.613281 28.71875 -20.03125 C 28.726562 -20.457031 28.800781 -22.285156 28.9375 -25.515625 C 27.894531 -21.566406 27.125 -18.816406 26.625 -17.265625 L 21.046875 0 L 16.4375 0 L 10.859375 -17.265625 L 8.5 -25.515625 C 8.675781 -22.109375 8.765625 -19.859375 8.765625 -18.765625 L 8.765625 0 L 3.015625 0 L 3.015625 -30.953125 L 11.6875 -30.953125 L 17.234375 -13.640625 L 17.703125 -11.96875 L 18.765625 -7.828125 L 20.15625 -12.78125 L 25.84375 -30.953125 L 34.46875 -30.953125 L 34.46875 0 Z M 28.71875 0 "/></g></g></g><g fill="#5e8b96" fill-opacity="1"><g transform="translate(292.386457, 168.130799)"><g><path d="M 24.890625 0 L 22.15625 -7.90625 L 10.34375 -7.90625 L 7.609375 0 L 1.125 0 L 12.421875 -30.953125 L 20.0625 -30.953125 L 31.3125 0 Z M 16.234375 -26.1875 L 16.109375 -25.703125 C 15.960938 -25.179688 15.785156 -24.582031 15.578125 -23.90625 C 15.367188 -23.226562 14.109375 -19.519531 11.796875 -12.78125 L 20.703125 -12.78125 L 17.640625 -21.6875 L 16.703125 -24.671875 Z M 16.234375 -26.1875 "/></g></g></g><g fill="#5e8b96" fill-opacity="1"><g transform="translate(83.101223, 219.880795)"><g/></g></g><g fill="#5e8b96" fill-opacity="1"><g transform="translate(100.855128, 219.880795)"><g><path d="M 3.015625 0 L 3.015625 -30.953125 L 9.5 -30.953125 L 9.5 0 Z M 3.015625 0 "/></g></g></g><g fill="#5e8b96" fill-opacity="1"><g transform="translate(118.61923, 219.880795)"><g><path d="M 30.453125 -8.828125 C 30.453125 -6.015625 29.394531 -3.835938 27.28125 -2.296875 C 25.175781 -0.765625 22.25 0 18.5 0 L 3.015625 0 L 3.015625 -30.953125 L 17.1875 -30.953125 C 20.96875 -30.953125 23.828125 -30.296875 25.765625 -28.984375 C 27.703125 -27.679688 28.671875 -25.75 28.671875 -23.1875 C 28.671875 -21.425781 28.179688 -19.941406 27.203125 -18.734375 C 26.234375 -17.523438 24.753906 -16.707031 22.765625 -16.28125 C 25.265625 -15.988281 27.171875 -15.203125 28.484375 -13.921875 C 29.796875 -12.640625 30.453125 -10.941406 30.453125 -8.828125 Z M 22.15625 -22.296875 C 22.15625 -23.691406 21.707031 -24.679688 20.8125 -25.265625 C 19.925781 -25.847656 18.613281 -26.140625 16.875 -26.140625 L 9.5 -26.140625 L 9.5 -18.484375 L 16.921875 -18.484375 C 18.753906 -18.484375 20.082031 -18.800781 20.90625 -19.4375 C 21.738281 -20.070312 22.15625 -21.023438 22.15625 -22.296875 Z M 23.953125 -9.34375 C 23.953125 -12.238281 21.867188 -13.6875 17.703125 -13.6875 L 9.5 -13.6875 L 9.5 -4.8125 L 17.953125 -4.8125 C 20.035156 -4.8125 21.554688 -5.1875 22.515625 -5.9375 C 23.472656 -6.695312 23.953125 -7.832031 23.953125 -9.34375 Z M 23.953125 -9.34375 "/></g></g></g><g fill="#5e8b96" fill-opacity="1"><g transform="translate(156.373241, 219.880795)"><g><path d="M 24.28125 0 L 17.09375 -11.75 L 9.5 -11.75 L 9.5 0 L 3.015625 0 L 3.015625 -30.953125 L 18.484375 -30.953125 C 22.171875 -30.953125 25.015625 -30.15625 27.015625 -28.5625 C 29.023438 -26.976562 30.03125 -24.703125 30.03125 -21.734375 C 30.03125 -19.566406 29.414062 -17.691406 28.1875 -16.109375 C 26.957031 -14.535156 25.296875 -13.503906 23.203125 -13.015625 L 31.578125 0 Z M 23.515625 -21.46875 C 23.515625 -24.4375 21.609375 -25.921875 17.796875 -25.921875 L 9.5 -25.921875 L 9.5 -16.78125 L 17.96875 -16.78125 C 19.789062 -16.78125 21.171875 -17.191406 22.109375 -18.015625 C 23.046875 -18.835938 23.515625 -19.988281 23.515625 -21.46875 Z M 23.515625 -21.46875 "/></g></g></g><g fill="#5e8b96" fill-opacity="1"><g transform="translate(194.127251, 219.880795)"><g><path d="M 24.890625 0 L 22.15625 -7.90625 L 10.34375 -7.90625 L 7.609375 0 L 1.125 0 L 12.421875 -30.953125 L 20.0625 -30.953125 L 31.3125 0 Z M 16.234375 -26.1875 L 16.109375 -25.703125 C 15.960938 -25.179688 15.785156 -24.582031 15.578125 -23.90625 C 15.367188 -23.226562 14.109375 -19.519531 11.796875 -12.78125 L 20.703125 -12.78125 L 17.640625 -21.6875 L 16.703125 -24.671875 Z M 16.234375 -26.1875 "/></g></g></g><g fill="#5e8b96" fill-opacity="1"><g transform="translate(231.881262, 219.880795)"><g><path d="M 22.984375 0 L 22.984375 -13.265625 L 9.5 -13.265625 L 9.5 0 L 3.015625 0 L 3.015625 -30.953125 L 9.5 -30.953125 L 9.5 -18.640625 L 22.984375 -18.640625 L 22.984375 -30.953125 L 29.46875 -30.953125 L 29.46875 0 Z M 22.984375 0 "/></g></g></g><g fill="#5e8b96" fill-opacity="1"><g transform="translate(269.635272, 219.880795)"><g><path d="M 3.015625 0 L 3.015625 -30.953125 L 9.5 -30.953125 L 9.5 0 Z M 3.015625 0 "/></g></g></g><g fill="#5e8b96" fill-opacity="1"><g transform="translate(287.399374, 219.880795)"><g><path d="M 28.71875 0 L 28.71875 -18.765625 C 28.71875 -19.191406 28.71875 -19.613281 28.71875 -20.03125 C 28.726562 -20.457031 28.800781 -22.285156 28.9375 -25.515625 C 27.894531 -21.566406 27.125 -18.816406 26.625 -17.265625 L 21.046875 0 L 16.4375 0 L 10.859375 -17.265625 L 8.5 -25.515625 C 8.675781 -22.109375 8.765625 -19.859375 8.765625 -18.765625 L 8.765625 0 L 3.015625 0 L 3.015625 -30.953125 L 11.6875 -30.953125 L 17.234375 -13.640625 L 17.703125 -11.96875 L 18.765625 -7.828125 L 20.15625 -12.78125 L 25.84375 -30.953125 L 34.46875 -30.953125 L 34.46875 0 Z M 28.71875 0 "/></g></g></g></svg>