<svg xmlns="http://www.w3.org/2000/svg" xmlns:xlink="http://www.w3.org/1999/xlink" width="500" zoomAndPan="magnify" viewBox="0 0 375 374.999991" height="500" preserveAspectRatio="xMidYMid meet" version="1.0"><defs><g/></defs><g fill="#5e8b96" fill-opacity="1"><g transform="translate(29.834787, 168.130799)"><g><path d="M 34.4375 0 L 26.734375 0 L 22.546875 -17.90625 C 22.035156 -20.019531 21.601562 -22.222656 21.25 -24.515625 C 20.894531 -22.597656 20.609375 -21.140625 20.390625 -20.140625 C 20.171875 -19.140625 18.609375 -12.425781 15.703125 0 L 8.015625 0 L 0.046875 -30.953125 L 6.609375 -30.953125 L 11.09375 -10.96875 L 12.109375 -6.125 C 12.515625 -8.164062 12.910156 -10.113281 13.296875 -11.96875 C 13.691406 -13.820312 15.15625 -20.148438 17.6875 -30.953125 L 24.9375 -30.953125 L 28.84375 -14.484375 C 29.15625 -13.253906 29.675781 -10.46875 30.40625 -6.125 L 30.953125 -8.671875 L 32.125 -13.734375 L 35.859375 -30.953125 L 42.421875 -30.953125 Z M 34.4375 0 "/></g></g></g><g fill="#5e8b96" fill-opacity="1"><g transform="translate(77.561785, 168.130799)"><g><path d="M 3.015625 0 L 3.015625 -30.953125 L 27.359375 -30.953125 L 27.359375 -25.953125 L 9.5 -25.953125 L 9.5 -18.171875 L 26.015625 -18.171875 L 26.015625 -13.15625 L 9.5 -13.15625 L 9.5 -5.015625 L 28.25 -5.015625 L 28.25 0 Z M 3.015625 0 "/></g></g></g><g fill="#5e8b96" fill-opacity="1"><g transform="translate(112.833527, 168.130799)"><g><path d="M 30.453125 -8.828125 C 30.453125 -6.015625 29.394531 -3.835938 27.28125 -2.296875 C 25.175781 -0.765625 22.25 0 18.5 0 L 3.015625 0 L 3.015625 -30.953125 L 17.1875 -30.953125 C 20.96875 -30.953125 23.828125 -30.296875 25.765625 -28.984375 C 27.703125 -27.679688 28.671875 -25.75 28.671875 -23.1875 C 28.671875 -21.425781 28.179688 -19.941406 27.203125 -18.734375 C 26.234375 -17.523438 24.753906 -16.707031 22.765625 -16.28125 C 25.265625 -15.988281 27.171875 -15.203125 28.484375 -13.921875 C 29.796875 -12.640625 30.453125 -10.941406 30.453125 -8.828125 Z M 22.15625 -22.296875 C 22.15625 -23.691406 21.707031 -24.679688 20.8125 -25.265625 C 19.925781 -25.847656 18.613281 -26.140625 16.875 -26.140625 L 9.5 -26.140625 L 9.5 -18.484375 L 16.921875 -18.484375 C 18.753906 -18.484375 20.082031 -18.800781 20.90625 -19.4375 C 21.738281 -20.070312 22.15625 -21.023438 22.15625 -22.296875 Z M 23.953125 -9.34375 C 23.953125 -12.238281 21.867188 -13.6875 17.703125 -13.6875 L 9.5 -13.6875 L 9.5 -4.8125 L 17.953125 -4.8125 C 20.035156 -4.8125 21.554688 -5.1875 22.515625 -5.9375 C 23.472656 -6.695312 23.953125 -7.832031 23.953125 -9.34375 Z M 23.953125 -9.34375 "/></g></g></g><g fill="#5e8b96" fill-opacity="1"><g transform="translate(29.834787, 219.880795)"><g><path d="M 30.609375 -15.703125 C 30.609375 -12.515625 29.976562 -9.726562 28.71875 -7.34375 C 27.46875 -4.96875 25.695312 -3.148438 23.40625 -1.890625 C 21.113281 -0.628906 18.488281 0 15.53125 0 L 3.015625 0 L 3.015625 -30.953125 L 14.21875 -30.953125 C 19.425781 -30.953125 23.457031 -29.640625 26.3125 -27.015625 C 29.175781 -24.390625 30.609375 -20.617188 30.609375 -15.703125 Z M 24.078125 -15.703125 C 24.078125 -19.035156 23.210938 -21.578125 21.484375 -23.328125 C 19.753906 -25.078125 17.285156 -25.953125 14.078125 -25.953125 L 9.5 -25.953125 L 9.5 -5.015625 L 14.984375 -5.015625 C 17.765625 -5.015625 19.972656 -5.972656 21.609375 -7.890625 C 23.253906 -9.804688 24.078125 -12.410156 24.078125 -15.703125 Z M 24.078125 -15.703125 "/></g></g></g><g fill="#5e8b96" fill-opacity="1"><g transform="translate(67.588797, 219.880795)"><g><path d="M 3.015625 0 L 3.015625 -30.953125 L 27.359375 -30.953125 L 27.359375 -25.953125 L 9.5 -25.953125 L 9.5 -18.171875 L 26.015625 -18.171875 L 26.015625 -13.15625 L 9.5 -13.15625 L 9.5 -5.015625 L 28.25 -5.015625 L 28.25 0 Z M 3.015625 0 "/></g></g></g><g fill="#5e8b96" fill-opacity="1"><g transform="translate(102.860539, 219.880795)"><g><path d="M 18.328125 0 L 11.75 0 L 0.3125 -30.953125 L 7.078125 -30.953125 L 13.453125 -11.078125 C 13.847656 -9.785156 14.390625 -7.835938 15.078125 -5.234375 L 15.53125 -7.125 L 16.65625 -11.078125 L 23 -30.953125 L 29.703125 -30.953125 Z M 18.328125 0 "/></g></g></g><g fill="#5e8b96" fill-opacity="1"><g transform="translate(138.13228, 219.880795)"><g><path d="M 3.015625 0 L 3.015625 -30.953125 L 27.359375 -30.953125 L 27.359375 -25.953125 L 9.5 -25.953125 L 9.5 -18.171875 L 26.015625 -18.171875 L 26.015625 -13.15625 L 9.5 -13.15625 L 9.5 -5.015625 L 28.25 -5.015625 L 28.25 0 Z M 3.015625 0 "/></g></g></g><g fill="#5e8b96" fill-opacity="1"><g transform="translate(173.404022, 219.880795)"><g><path d="M 3.015625 0 L 3.015625 -30.953125 L 9.5 -30.953125 L 9.5 -5.015625 L 26.109375 -5.015625 L 26.109375 0 Z M 3.015625 0 "/></g></g></g><g fill="#5e8b96" fill-opacity="1"><g transform="translate(206.149572, 219.880795)"><g><path d="M 33.109375 -15.625 C 33.109375 -12.394531 32.472656 -9.554688 31.203125 -7.109375 C 29.929688 -4.671875 28.109375 -2.800781 25.734375 -1.5 C 23.359375 -0.207031 20.585938 0.4375 17.421875 0.4375 C 12.554688 0.4375 8.742188 -0.992188 5.984375 -3.859375 C 3.222656 -6.722656 1.84375 -10.644531 1.84375 -15.625 C 1.84375 -20.59375 3.21875 -24.46875 5.96875 -27.25 C 8.726562 -30.03125 12.5625 -31.421875 17.46875 -31.421875 C 22.375 -31.421875 26.207031 -30.015625 28.96875 -27.203125 C 31.726562 -24.390625 33.109375 -20.53125 33.109375 -15.625 Z M 26.5 -15.625 C 26.5 -18.957031 25.707031 -21.570312 24.125 -23.46875 C 22.539062 -25.375 20.320312 -26.328125 17.46875 -26.328125 C 14.570312 -26.328125 12.332031 -25.382812 10.75 -23.5 C 9.164062 -21.613281 8.375 -18.988281 8.375 -15.625 C 8.375 -12.226562 9.179688 -9.550781 10.796875 -7.59375 C 12.421875 -5.632812 14.628906 -4.65625 17.421875 -4.65625 C 20.328125 -4.65625 22.566406 -5.609375 24.140625 -7.515625 C 25.710938 -9.421875 26.5 -12.125 26.5 -15.625 Z M 26.5 -15.625 "/></g></g></g><g fill="#5e8b96" fill-opacity="1"><g transform="translate(246.407802, 219.880795)"><g><path d="M 28.484375 -21.15625 C 28.484375 -19.164062 28.023438 -17.382812 27.109375 -15.8125 C 26.203125 -14.25 24.898438 -13.039062 23.203125 -12.1875 C 21.515625 -11.332031 19.507812 -10.90625 17.1875 -10.90625 L 9.5 -10.90625 L 9.5 0 L 3.015625 0 L 3.015625 -30.953125 L 16.921875 -30.953125 C 20.628906 -30.953125 23.484375 -30.097656 25.484375 -28.390625 C 27.484375 -26.691406 28.484375 -24.28125 28.484375 -21.15625 Z M 21.953125 -21.046875 C 21.953125 -24.296875 20.03125 -25.921875 16.1875 -25.921875 L 9.5 -25.921875 L 9.5 -15.890625 L 16.375 -15.890625 C 18.15625 -15.890625 19.53125 -16.332031 20.5 -17.21875 C 21.46875 -18.101562 21.953125 -19.378906 21.953125 -21.046875 Z M 21.953125 -21.046875 "/></g></g></g><g fill="#5e8b96" fill-opacity="1"><g transform="translate(281.679543, 219.880795)"><g><path d="M 3.015625 0 L 3.015625 -30.953125 L 27.359375 -30.953125 L 27.359375 -25.953125 L 9.5 -25.953125 L 9.5 -18.171875 L 26.015625 -18.171875 L 26.015625 -13.15625 L 9.5 -13.15625 L 9.5 -5.015625 L 28.25 -5.015625 L 28.25 0 Z M 3.015625 0 "/></g></g></g><g fill="#5e8b96" fill-opacity="1"><g transform="translate(316.951285, 219.880795)"><g><path d="M 24.28125 0 L 17.09375 -11.75 L 9.5 -11.75 L 9.5 0 L 3.015625 0 L 3.015625 -30.953125 L 18.484375 -30.953125 C 22.171875 -30.953125 25.015625 -30.15625 27.015625 -28.5625 C 29.023438 -26.976562 30.03125 -24.703125 30.03125 -21.734375 C 30.03125 -19.566406 29.414062 -17.691406 28.1875 -16.109375 C 26.957031 -14.535156 25.296875 -13.503906 23.203125 -13.015625 L 31.578125 0 Z M 23.515625 -21.46875 C 23.515625 -24.4375 21.609375 -25.921875 17.796875 -25.921875 L 9.5 -25.921875 L 9.5 -16.78125 L 17.96875 -16.78125 C 19.789062 -16.78125 21.171875 -17.191406 22.109375 -18.015625 C 23.046875 -18.835938 23.515625 -19.988281 23.515625 -21.46875 Z M 23.515625 -21.46875 "/></g></g></g></svg>